<?xml version="1.0" standalone="no"?>
<!DOCTYPE svg PUBLIC "-//W3C//DTD SVG 20010904//EN"
 "http://www.w3.org/TR/2001/REC-SVG-20010904/DTD/svg10.dtd">
<svg version="1.0" xmlns="http://www.w3.org/2000/svg"
 width="700.000000pt" height="700.000000pt" viewBox="0 0 700.000000 700.000000"
 preserveAspectRatio="xMidYMid meet">
<metadata>
Created by potrace 1.14, written by Peter Selinger 2001-2017
</metadata>
<g transform="translate(0.000000,700.000000) scale(0.100000,-0.100000)"
fill="#000000" stroke="none">
<path d="M3198 6980 c-204 -43 -349 -122 -499 -270 -88 -87 -163 -192 -206
-289 -29 -65 -69 -200 -77 -261 -3 -25 -8 -54 -10 -65 -10 -52 -27 -162 -29
-182 -1 -13 -4 -23 -7 -23 -3 0 -24 37 -45 82 -115 238 -278 403 -497 502 -77
35 -203 71 -278 81 -58 7 -221 7 -251 1 -13 -3 -42 -8 -63 -11 -60 -8 -210
-61 -274 -96 -322 -178 -522 -506 -523 -862 -1 -197 29 -298 171 -592 45 -93
106 -219 135 -280 29 -60 88 -182 130 -270 42 -88 99 -205 125 -260 26 -55 86
-179 132 -274 l85 -175 -85 -50 c-77 -46 -219 -171 -274 -243 -98 -127 -175
-315 -195 -472 -9 -70 -9 -1215 0 -1308 19 -207 119 -426 265 -577 60 -62 82
-81 232 -196 58 -45 114 -89 125 -99 11 -9 47 -37 80 -61 62 -47 89 -68 109
-85 6 -5 38 -30 71 -55 33 -25 62 -48 65 -51 14 -17 182 -135 263 -185 77 -48
141 -81 342 -175 39 -18 291 -97 329 -103 21 -4 41 -8 45 -10 6 -4 120 -25
231 -42 65 -10 1506 -14 1565 -4 28 4 77 11 110 15 130 14 349 68 485 118 393
145 736 385 1007 704 90 108 96 114 163 214 156 230 288 528 346 779 18 80 34
164 40 205 3 28 8 58 10 69 17 92 25 1737 9 1871 -49 401 -374 738 -778 805
-103 17 -288 8 -384 -19 -40 -12 -76 -21 -80 -21 -5 0 -42 27 -83 60 -131 105
-294 178 -451 201 -76 11 -224 8 -294 -6 -61 -12 -171 -48 -217 -71 -26 -13
-49 -24 -51 -24 -6 0 0 48 18 150 3 15 14 87 21 125 1 11 8 47 13 80 6 33 13
80 16 105 4 25 10 68 15 95 18 93 62 380 68 435 35 332 -90 637 -358 871 -89
77 -242 155 -378 190 -113 29 -320 34 -434 9z m339 -672 c131 -61 204 -221
173 -377 -5 -25 -12 -63 -15 -83 -9 -69 -16 -111 -56 -353 -21 -132 -41 -258
-45 -280 -3 -22 -17 -107 -30 -190 -31 -185 -31 -190 -39 -240 -3 -23 -8 -52
-10 -65 -3 -14 -10 -56 -15 -95 -6 -38 -19 -122 -30 -185 -11 -63 -22 -133
-25 -155 -8 -50 -13 -83 -19 -115 -3 -14 -8 -43 -11 -65 -11 -78 -17 -110 -20
-113 -2 -2 -39 8 -82 22 -44 13 -99 28 -124 32 -83 15 -239 10 -364 -11 -97
-16 -93 -16 -89 2 5 21 63 373 69 418 2 17 6 45 9 63 12 65 16 91 51 312 20
124 38 236 40 250 2 14 7 43 10 65 3 22 12 76 20 120 8 44 17 98 20 120 3 23
7 50 9 60 7 36 17 100 21 130 2 17 6 44 9 60 14 78 55 335 61 375 9 64 34 149
53 179 89 139 276 191 429 119z m-2062 -410 c70 -15 122 -43 169 -92 38 -39
64 -89 278 -536 61 -126 126 -261 258 -535 40 -82 94 -195 120 -250 27 -55 91
-190 144 -299 53 -110 94 -201 92 -204 -2 -2 -19 -6 -38 -8 -18 -3 -85 -14
-148 -24 -63 -10 -133 -22 -155 -25 -23 -3 -50 -7 -60 -9 -11 -2 -42 -7 -70
-11 -27 -4 -59 -9 -70 -11 -11 -2 -43 -6 -70 -10 l-51 -6 -36 78 c-20 44 -82
174 -138 289 -147 302 -226 467 -275 570 -23 50 -72 151 -108 225 -248 516
-241 499 -232 577 19 155 157 282 315 290 14 1 48 -3 75 -9z m3281 -1547 c78
-35 143 -112 160 -192 3 -13 5 -212 5 -441 1 -470 0 -480 -71 -561 -56 -63
-117 -90 -205 -90 -115 0 -200 55 -249 163 -19 43 -20 63 -20 490 1 433 1 446
22 493 61 136 221 198 358 138z m989 -220 c52 -23 107 -79 137 -139 l23 -47 0
-445 0 -445 -23 -47 c-52 -105 -140 -161 -251 -160 -84 0 -130 20 -191 82 -81
80 -81 85 -78 596 l3 439 29 50 c44 76 87 110 163 129 59 16 135 10 188 -13z
m-2535 -766 c62 -31 117 -88 149 -155 22 -46 26 -69 26 -140 0 -74 -4 -92 -28
-140 -50 -98 -132 -162 -223 -175 -21 -3 -50 -8 -64 -10 -26 -5 -51 -9 -133
-20 -27 -4 -56 -8 -65 -10 -10 -1 -39 -6 -67 -9 -27 -4 -57 -9 -65 -11 -8 -2
-37 -6 -65 -10 -27 -3 -57 -8 -65 -10 -8 -2 -37 -6 -65 -10 -284 -34 -361 -72
-436 -215 -18 -35 -24 -64 -25 -125 -3 -113 16 -166 86 -236 97 -97 205 -120
400 -84 8 1 40 6 71 9 31 4 65 8 75 10 11 2 44 7 74 11 30 3 66 8 80 10 97 14
189 27 210 30 14 2 48 7 75 10 126 16 182 28 257 55 235 86 416 252 533 489
l35 71 37 -37 c126 -121 305 -212 483 -244 122 -21 327 -7 423 30 42 16 48 14
97 -30 107 -95 280 -182 425 -212 92 -19 249 -19 353 0 46 8 85 14 87 12 6 -6
-22 -159 -45 -249 -111 -432 -406 -831 -784 -1059 -120 -73 -257 -135 -388
-175 -248 -76 -295 -80 -1043 -79 -661 0 -732 3 -894 39 -265 59 -500 173
-718 349 -79 63 -70 56 -237 185 -282 219 -361 282 -384 308 -27 32 -57 92
-70 143 -6 22 -9 286 -8 645 l1 609 29 59 c48 98 130 164 226 182 25 4 47 8
50 9 3 1 32 5 65 9 32 4 68 10 80 12 11 2 37 6 59 9 21 3 50 7 65 10 74 12 89
15 128 19 23 3 79 12 125 20 45 8 103 17 128 21 25 3 88 13 140 21 52 8 112
17 135 21 22 3 47 6 55 7 8 2 40 6 70 11 30 4 64 9 75 11 55 11 135 23 175 28
115 14 134 17 137 20 9 8 112 -18 153 -39z"/>
</g>
</svg>
